<?xml version="1.0" standalone="no"?><!DOCTYPE svg PUBLIC "-//W3C//DTD SVG 1.1//EN" "http://www.w3.org/Graphics/SVG/1.1/DTD/svg11.dtd"><svg t="1638933653981" class="icon" viewBox="0 0 1024 1024" version="1.1" xmlns="http://www.w3.org/2000/svg" p-id="2400" width="128" height="128" xmlns:xlink="http://www.w3.org/1999/xlink"><defs><style type="text/css"></style></defs><path d="M780.8 661.333333c-81.066667 140.8-264.533333 192-409.6 110.933334-46.933333-25.6-81.066667-64-110.933333-110.933334-12.8-21.333333-4.266667-46.933333 17.066666-59.733333 21.333333-12.8 46.933333-4.266667 59.733334 12.8v4.266667c59.733333 102.4 187.733333 136.533333 290.133333 76.8 34.133333-17.066667 59.733333-46.933333 76.8-76.8 12.8-21.333333 38.4-25.6 59.733333-12.8 21.333333 12.8 25.6 34.133333 17.066667 55.466666zM298.666667 341.333333c0-25.6 17.066667-42.666667 42.666666-42.666666s42.666667 17.066667 42.666667 42.666666v128c0 25.6-17.066667 42.666667-42.666667 42.666667s-42.666667-17.066667-42.666666-42.666667V341.333333z m341.333333 0c0-25.6 17.066667-42.666667 42.666667-42.666666s42.666667 17.066667 42.666666 42.666666v128c0 25.6-17.066667 42.666667-42.666666 42.666667s-42.666667-17.066667-42.666667-42.666667V341.333333z m-128-341.333333C230.4 0 0 230.4 0 512s230.4 512 512 512 512-230.4 512-512S793.6 0 512 0z" p-id="2401" fill="#FFCC1D"></path></svg>