<?xml version="1.0" standalone="no"?><!DOCTYPE svg PUBLIC "-//W3C//DTD SVG 1.1//EN" "http://www.w3.org/Graphics/SVG/1.1/DTD/svg11.dtd"><svg t="1638854260328" class="icon" viewBox="0 0 1024 1024" version="1.1" xmlns="http://www.w3.org/2000/svg" p-id="6174" width="128" height="128" xmlns:xlink="http://www.w3.org/1999/xlink"><defs><style type="text/css"></style></defs><path d="M370.517333 130.176a42.666667 42.666667 0 0 1 26.965334 0L640 211.029333l186.325333-62.122666A85.333333 85.333333 0 0 1 938.666667 229.845333V737.28a85.333333 85.333333 0 0 1-58.325334 80.981333l-226.858666 75.605334a42.666667 42.666667 0 0 1-26.965334 0L384 812.970667 197.632 875.093333A85.333333 85.333333 0 0 1 85.333333 794.154667V286.72a85.333333 85.333333 0 0 1 58.368-80.981333l226.816-75.605334zM426.666667 737.28l170.666666 56.917333V286.72l-170.666666-56.917333V737.28zM341.333333 229.845333L170.666667 286.762667v507.392l170.666666-56.917334V229.845333z m341.333334 56.917334v507.392l170.666666-56.917334V229.845333l-170.666666 56.917334z" fill="#2c2c2c" p-id="6175"></path></svg>