<?xml version="1.0" standalone="no"?><!DOCTYPE svg PUBLIC "-//W3C//DTD SVG 1.1//EN" "http://www.w3.org/Graphics/SVG/1.1/DTD/svg11.dtd"><svg t="1639016388287" class="icon" viewBox="0 0 1024 1024" version="1.1" xmlns="http://www.w3.org/2000/svg" p-id="2771" xmlns:xlink="http://www.w3.org/1999/xlink" width="128" height="128"><defs><style type="text/css"></style></defs><path d="M712.4 341.6l-173.4 393.4c-10.2 22-43.8 14.8-43.8-9.6v-188.2c0-0.6 0-1.2-0.2-1.6-0.2-0.6-0.2-1-0.4-1.6-0.2-0.6-0.4-1-0.8-1.4-0.4-0.4-0.6-0.8-1-1.2-0.4-0.4-0.8-0.8-1.2-1-0.4-0.4-1-0.6-1.4-0.8-0.6-0.2-1-0.4-1.6-0.4-0.6-0.2-1-0.2-1.6-0.2h-188.2c-24.2 0-31.6-33.4-9.6-43.6l393.4-173.6c2.2-1 4.4-1.6 6.6-1.8 2.2-0.2 4.6-0.2 6.8 0.2s4.4 1.2 6.4 2.2c2 1 3.8 2.4 5.6 4 1.6 1.6 3 3.4 4 5.6 1 2 1.8 4.2 2.2 6.4 0.4 2.2 0.4 4.6 0.2 6.8-0.4 2.2-1 4.4-2 6.4zM518.2 73.2C271.4 70 70 271.4 73.2 518.2c3.2 236.6 196 429.4 432.6 432.6 246.8 3.4 448.2-198 444.8-444.8-3.2-236.8-195.8-429.4-432.4-432.8z" p-id="2772" fill="#FFCC1D"></path></svg>