<?xml version="1.0" standalone="no"?><!DOCTYPE svg PUBLIC "-//W3C//DTD SVG 1.1//EN" "http://www.w3.org/Graphics/SVG/1.1/DTD/svg11.dtd"><svg t="1638722396367" class="icon" viewBox="0 0 1024 1024" version="1.1" xmlns="http://www.w3.org/2000/svg" p-id="4998" xmlns:xlink="http://www.w3.org/1999/xlink" width="200" height="200"><defs><style type="text/css"></style></defs><path d="M848.96 658.88a124.48 124.48 0 0 0 47.04-96 132.48 132.48 0 0 0-135.68-128h-49.6c147.2-215.36-66.24-318.08-184.32-356.48a18.24 18.24 0 0 0-21.12 7.68 19.2 19.2 0 0 0 0 22.72c30.08 35.2 54.08 79.04 6.4 96-336.64 85.44-195.52 230.08-195.52 230.08H263.68a132.48 132.48 0 0 0-135.68 128 124.48 124.48 0 0 0 47.04 96 144 144 0 0 0 0 288h672a144 144 0 0 0 0-288z" fill="#231F20" p-id="4999"></path></svg>