<?xml version="1.0" standalone="no"?><!DOCTYPE svg PUBLIC "-//W3C//DTD SVG 1.1//EN" "http://www.w3.org/Graphics/SVG/1.1/DTD/svg11.dtd"><svg t="1638933696507" class="icon" viewBox="0 0 1024 1024" version="1.1" xmlns="http://www.w3.org/2000/svg" p-id="6512" width="128" height="128" xmlns:xlink="http://www.w3.org/1999/xlink"><defs><style type="text/css"></style></defs><path d="M512 1024C230.4 1024 0 793.6 0 512S230.4 0 512 0s512 230.4 512 512-230.4 512-512 512z m8.533333-426.666667c-106.666667 0-204.8 55.466667-260.266666 149.333334-4.266667 8.533333-4.266667 21.333333-4.266667 34.133333 4.266667 12.8 8.533333 21.333333 21.333333 25.6 8.533333 4.266667 12.8 4.266667 21.333334 4.266667 17.066667 0 29.866667-8.533333 38.4-21.333334 38.4-64 106.666667-106.666667 183.466666-106.666666 76.8 0 145.066667 42.666667 183.466667 106.666666 8.533333 12.8 21.333333 21.333333 38.4 21.333334 8.533333 0 12.8 0 21.333333-4.266667 21.333333-12.8 25.6-38.4 17.066667-59.733333-55.466667-93.866667-153.6-149.333333-260.266667-149.333334zM682.666667 298.666667c-25.6 0-42.666667 17.066667-42.666667 42.666666v128c0 25.6 17.066667 42.666667 42.666667 42.666667s42.666667-17.066667 42.666666-42.666667V341.333333c0-25.6-17.066667-42.666667-42.666666-42.666666zM341.333333 298.666667c-25.6 0-42.666667 17.066667-42.666666 42.666666v128c0 25.6 17.066667 42.666667 42.666666 42.666667s42.666667-17.066667 42.666667-42.666667V341.333333c0-25.6-17.066667-42.666667-42.666667-42.666666z" p-id="6513" fill="#cdcdcd"></path></svg>