<?xml version="1.0" standalone="no"?><!DOCTYPE svg PUBLIC "-//W3C//DTD SVG 1.1//EN" "http://www.w3.org/Graphics/SVG/1.1/DTD/svg11.dtd"><svg t="1638860017793" class="icon" viewBox="0 0 1024 1024" version="1.1" xmlns="http://www.w3.org/2000/svg" p-id="6696" xmlns:xlink="http://www.w3.org/1999/xlink" width="128" height="128"><defs><style type="text/css"></style></defs><path d="M0 512C0 230.4 230.4 0 512 0s512 230.4 512 512-230.4 512-512 512S0 793.6 0 512z m85.333333 0c0 234.666667 192 426.666667 426.666667 426.666667s426.666667-192 426.666667-426.666667S746.666667 85.333333 512 85.333333 85.333333 277.333333 85.333333 512z m192 294.4c-8.533333-4.266667-17.066667-17.066667-21.333333-25.6 0-12.8 0-25.6 4.266667-34.133333 55.466667-93.866667 153.6-149.333333 260.266666-149.333334 106.666667 0 204.8 55.466667 260.266667 149.333334 12.8 21.333333 4.266667 46.933333-17.066667 59.733333-21.333333 12.8-46.933333 4.266667-59.733333-17.066667C665.6 725.333333 597.333333 682.666667 520.533333 682.666667c-76.8 0-145.066667 42.666667-183.466666 106.666666-8.533333 12.8-21.333333 21.333333-38.4 21.333334-8.533333 0-12.8 0-21.333334-4.266667zM640 469.333333V341.333333c0-25.6 17.066667-42.666667 42.666667-42.666666s42.666667 17.066667 42.666666 42.666666v128c0 25.6-17.066667 42.666667-42.666666 42.666667s-42.666667-17.066667-42.666667-42.666667z m-341.333333 0V341.333333c0-25.6 17.066667-42.666667 42.666666-42.666666s42.666667 17.066667 42.666667 42.666666v128c0 25.6-17.066667 42.666667-42.666667 42.666667s-42.666667-17.066667-42.666666-42.666667z" p-id="6697"></path></svg>